<svg width="530" height="94" viewBox="0 0 530 94" fill="none" xmlns="http://www.w3.org/2000/svg">
<path d="M21.168 51.6C19.248 64.272 17.328 77.072 15.28 89.872C10.416 89.872 5.68 89.872 0.56 89.872C5.04 60.048 9.392 30.48 13.872 0.783997C15.536 0.271996 26.16 0.143997 28.848 0.655998C30.896 13.84 32.816 27.024 34.864 40.208C35.12 40.208 35.12 40.208 35.248 40.208L35.376 40.08C37.424 27.024 39.472 13.84 41.52 0.783997C43.184 0.271996 53.424 0.143997 56.368 0.527992C60.848 30.224 65.328 60.048 69.808 90C64.688 90 59.952 90 55.088 90C53.04 77.072 51.12 64.272 49.2 51.472C49.072 51.472 48.816 51.472 48.688 51.472C46.768 64.272 44.848 77.072 42.928 90C37.808 90 32.688 90 27.44 90C25.52 77.072 23.6 64.272 21.68 51.472C21.424 51.6 21.296 51.6 21.168 51.6ZM74.905 58.384C75.033 48.656 78.361 40.08 85.401 33.168C94.873 23.952 109.337 22.8 120.217 30.352C125.849 34.32 129.689 39.568 131.865 46.096C135.449 56.464 134.681 66.704 129.177 76.304C124.953 83.728 118.681 88.976 110.233 90.768C99.481 93.072 90.393 89.616 83.225 81.424C77.465 74.896 74.905 67.216 74.905 58.384ZM119.449 57.872C119.321 56.976 119.321 55.952 119.193 54.928C118.297 49.936 116.249 45.456 111.897 42.384C107.417 39.184 101.785 39.184 97.177 42.384C88.217 48.784 86.809 63.504 94.233 71.952C99.865 78.352 108.441 78.48 114.201 72.208C117.913 68.24 119.321 63.376 119.449 57.872ZM139.792 26.384C144.528 26.384 149.136 26.384 154.128 26.384C154.256 29.84 154.128 33.168 154.128 36.624C154.128 39.952 154 43.408 154 46.864C154 50.192 154 53.52 154 57.232C155.152 56.72 155.28 55.824 155.664 55.184C160.528 46.352 165.52 37.52 170.256 28.56C171.152 26.768 172.304 26.128 174.224 26.256C177.936 26.384 181.648 26.384 185.36 26.384C186.128 26.384 186.896 26.384 188.048 26.384C187.536 27.408 187.152 28.176 186.768 28.816C183.824 34.32 180.752 39.696 177.936 45.2C177.296 46.096 177.04 47.248 177.04 48.4C176.656 53.776 176.912 59.152 178.448 64.272C179.088 66.064 179.6 67.856 180.496 69.392C182.032 72.592 183.952 75.28 188.048 75.664C188.048 80.272 188.048 84.88 188.048 89.744C186.64 90.128 185.104 90 183.696 89.744C178.96 88.72 174.992 86.288 171.792 82.576C169.104 79.504 167.184 75.92 165.648 72.08C165.392 71.312 165.136 70.672 164.88 69.904C163.6 70.8 157.2 81.936 153.488 89.616C148.88 89.616 144.272 89.616 139.664 89.616C139.152 87.952 139.28 30.48 139.792 26.384ZM193.155 89.872C193.411 88.592 193.667 87.44 194.051 86.416C196.611 78.352 199.171 70.416 201.859 62.352C205.699 50.704 209.539 39.056 213.379 27.408C213.507 27.024 213.635 26.64 213.891 26.256C220.163 26.256 226.563 26.256 233.091 26.256C240.003 47.248 246.787 68.496 253.699 89.872C248.451 89.872 243.587 89.872 238.467 89.872C236.931 85.392 235.395 80.912 233.987 76.432C225.795 74.768 212.355 79.76 208.131 89.872C203.267 89.872 198.403 89.872 193.155 89.872ZM216.835 63.632C221.059 62.736 225.027 61.968 228.995 61.2C227.331 55.568 225.539 50.064 223.619 44.432C223.491 44.432 223.235 44.432 223.107 44.432C221.059 50.832 218.883 57.104 216.835 63.632ZM288.86 63.248C291.292 69.008 294.236 74 301.02 75.408C301.02 80.144 301.02 84.88 301.02 89.872C288.348 88.976 281.18 81.168 276.06 70.8C273.5 71.44 273.372 71.44 273.372 73.872C273.244 78.352 273.244 82.832 273.116 87.312C273.116 88.208 272.988 89.104 272.988 90.128C268.252 90.128 263.644 90.128 259.036 90.128C258.524 88.08 259.164 28.688 259.676 26.64C260.188 26.512 260.572 26.384 261.084 26.384C268.636 26.512 276.188 26.64 283.74 26.896C287.964 27.024 291.676 28.688 295.004 31.248C302.172 36.496 302.812 47.76 298.588 53.392C295.9 57.104 292.956 60.432 288.86 63.248ZM273.756 55.696C277.596 53.648 281.18 51.728 284.124 49.04C284.892 48.272 285.66 47.376 286.172 46.48C287.324 44.176 286.684 42.256 284.252 41.232C280.924 39.824 277.468 39.824 273.756 40.208C273.756 45.456 273.756 50.448 273.756 55.696ZM306.405 90.128C306.405 68.624 306.405 47.376 306.405 26C311.525 26 316.389 26 321.509 26C323.301 34.704 328.165 41.232 335.589 46.352C336.229 45.712 336.613 45.072 337.125 44.304C340.837 38.8 344.677 33.424 348.261 27.792C349.285 26.384 350.309 25.872 351.845 26C356.069 26.128 360.293 26 364.517 26C364.645 26.768 364.773 27.28 364.773 27.92C364.901 29.2 364.901 30.608 364.901 31.888C364.901 50.32 365.029 68.88 365.029 87.312C365.029 88.08 365.029 88.976 365.029 90C360.037 90 355.301 90 350.309 90C350.309 77.2 350.309 64.528 350.309 51.984C350.181 51.856 350.053 51.856 349.797 51.728C347.621 54.672 345.701 57.616 343.653 60.56C341.605 63.632 339.685 66.576 337.381 69.776C333.413 66.96 329.573 64.272 325.605 61.584C326.245 60.432 326.757 59.536 327.269 58.512C325.349 56.976 323.301 55.312 320.869 53.52C320.869 59.92 320.869 65.936 320.869 71.952C320.741 77.84 320.869 83.856 320.869 90C315.749 90.256 311.013 90.128 306.405 90.128ZM371.435 89.872C371.435 60.304 371.435 30.992 371.435 1.55199C371.947 1.424 372.331 1.296 372.715 1.296C377.835 1.296 382.955 1.03999 388.075 1.424C409.963 2.576 427.883 20.368 429.419 42.256C430.955 64.656 415.851 84.88 393.963 88.976C390.379 89.616 386.795 89.744 383.083 89.872C379.371 90 375.531 89.872 371.435 89.872ZM386.155 75.28C397.419 74.384 405.995 69.52 411.243 59.792C417.003 48.912 416.235 38.16 409.195 28.048C403.819 20.496 392.939 14.992 386.155 16.4C386.155 35.856 386.155 55.312 386.155 75.28ZM449.247 40.976C449.247 45.2 449.247 48.912 449.247 52.88C452.191 52.112 454.879 51.216 457.695 50.704C460.639 50.32 463.583 49.936 466.655 50.32C466.655 55.056 466.655 59.792 466.655 64.656C464.863 64.784 463.327 64.784 461.663 64.912C457.951 65.168 454.495 66.448 451.295 68.624C449.631 69.776 448.735 71.184 449.119 73.36C449.247 73.872 449.247 74.384 449.247 75.152C450.143 75.152 450.911 75.28 451.679 75.28C457.567 75.28 463.327 75.28 469.087 75.28C470.239 75.28 471.391 75.536 472.543 75.664C472.543 80.4 472.543 84.752 472.543 89.488C471.647 89.616 470.751 89.872 469.855 89.872C458.463 89.872 447.071 89.872 435.807 89.872C435.551 89.872 435.295 89.872 434.911 89.744C434.783 89.232 434.655 88.592 434.655 88.08C434.655 67.984 434.655 48.016 434.655 27.92C434.655 27.536 434.783 27.152 434.783 26.896C436.703 26.256 469.855 26.256 472.543 26.896C472.543 31.504 472.543 36.112 472.543 40.848C471.647 40.976 470.623 41.104 469.599 41.104C463.711 41.104 457.951 40.976 452.063 40.976C451.167 40.976 450.399 40.976 449.247 40.976ZM512.471 26C517.591 26 522.327 26 527.191 26C528.087 28.688 528.343 31.504 528.599 34.192C529.879 48.272 527.831 61.84 521.431 74.512C518.999 79.504 515.799 83.856 511.831 87.696C510.679 88.848 509.527 89.36 507.863 89.36C503.639 89.232 499.287 89.36 494.679 89.36C489.047 68.112 483.415 47.12 477.655 26C482.775 26 487.639 26 492.759 26C496.983 41.36 501.079 56.72 505.431 72.72C506.071 71.824 506.583 71.312 506.967 70.672C510.423 64.784 512.471 58.512 513.623 51.728C514.903 43.536 514.775 35.472 512.727 27.408C512.599 27.024 512.599 26.64 512.471 26Z" fill="#03045E"/>
</svg>
